PathFileType	4	(X/Y/Z)	C:/Users/opensim2020/Desktop/walking_exp_matlab/subject02_walking06_straight_01.trc																																																																																																																									
DataRate	CameraRate	NumFrames	NumMarkers	Units	OrigDataRate	OrigDataStartFrame	OrigNumFrames																																																																																																																					
100	100	9	41	mm	100	883	205																																																																																																																					
Frame#	Time	LFHD			RFHD			LBHD			RBHD			C7			T10			CLAV			STRN			RBAK			LSHO			LUPA			LELB			LFRM			LWRA			LWRB			LFIN			RSHO			RUPA			RELB			RFRM			RWRA			RWRB			RFIN			LASI			RASI			LPSI			RPSI			LTHI			LKNE			LTIB			LANK			LHEE			LTOE			RTHI			RKNE			RTIB			RANK			RHEE			RTOE			*39			*40		
		X1	Y1	Z1	X2	Y2	Z2	X3	Y3	Z3	X4	Y4	Z4	X5	Y5	Z5	X6	Y6	Z6	X7	Y7	Z7	X8	Y8	Z8	X9	Y9	Z9	X10	Y10	Z10	X11	Y11	Z11	X12	Y12	Z12	X13	Y13	Z13	X14	Y14	Z14	X15	Y15	Z15	X16	Y16	Z16	X17	Y17	Z17	X18	Y18	Z18	X19	Y19	Z19	X20	Y20	Z20	X21	Y21	Z21	X22	Y22	Z22	X23	Y23	Z23	X24	Y24	Z24	X25	Y25	Z25	X26	Y26	Z26	X27	Y27	Z27	X28	Y28	Z28	X29	Y29	Z29	X30	Y30	Z30	X31	Y31	Z31	X32	Y32	Z32	X33	Y33	Z33	X34	Y34	Z34	X35	Y35	Z35	X36	Y36	Z36	X37	Y37	Z37	X38	Y38	Z38	X39	Y39	Z39	X40	Y40	Z40	X41	Y41	Z41
																																																																																																																												
129	1.28	113.80798	1737.1792	1402.60425	113.1659	1715.73645	1545.63782	1.49692	1637.10754	1388.04675	-11.09	1612.23535	1529.75122	-35.84736	1506.40955	1452.41797	-96.36751	1234.78589	1454.1322	102.32597	1439.29065	1448.01257	149.88837	1264.30054	1451.93835	-100.40129	1334.71533	1509.99976	52.84597	1489.58667	1277.67896	91.82491	1300.38965	1181.70325	139.78418	1165.5863	1160.73901	232.98912	1068.92297	1172.91675	347.14938	1020.05164	1233.37219	319.86523	986.10687	1197.30603	378.8591	957.58002	1204.23535	33.64038	1467.25159	1642.40686	-20.87614	1282.56921	1720.78235	-22.01249	1135.62915	1740.11926	-0.62713	1016.45178	1760.177	42.20212	887.70593	1740.4248	-5.45916	886.43274	1771.59082	28.26615	821.97662	1773.78833	123.31532	968.96228	1309.77625	144.53339	960.94336	1565.53723	-79.6605	1014.0777	1405.70667	-76.96046	1011.3631	1520.31335	10.58598	660.91388	1274.00024	-53.96358	467.33487	1310.94177	-145.46469	294.98245	1311.83252	-185.06738	74.71464	1351.66394	-226.61818	49.31913	1401.46509	-31.95796	31.87732	1341.72791	135.04697	668.0556	1655.33911	214.16989	476.45721	1625.77954	237.97182	292.24384	1647.96375	289.10995	102.20368	1629.56812	278.43179	34.80267	1577.38037	448.92191	99.06303	1642.96692	-2.1729	1777.74756	1489.79089	NaN	NaN	NaN
130	1.29	124.04219	1735.75513	1404.96313	123.29295	1713.99609	1547.87036	11.72029	1635.63867	1390.40625	-1.18728	1610.4519	1531.43164	-25.85134	1504.82751	1454.22998	-85.82391	1232.92517	1455.69458	112.53019	1437.6698	1449.85608	160.30566	1262.80505	1453.32825	-90.06979	1332.95715	1511.67065	63.2103	1487.98694	1279.39661	101.6255	1298.74744	1183.31189	150.25862	1163.96033	1162.47461	244.10757	1068.07471	1175.18945	358.52829	1020.37207	1235.7804	331.45856	985.91467	1199.86621	390.98462	958.08527	1206.9176	43.0712	1465.01001	1643.88281	-11.71392	1280.44922	1721.95251	-13.11869	1133.68823	1741.56018	7.6603	1014.46051	1761.74829	50.10071	885.52075	1742.34302	2.29768	884.51422	1773.22754	35.59405	819.75366	1775.64978	133.14331	966.9375	1310.31152	156.30405	959.39355	1565.96399	-69.0041	1012.31006	1407.60034	-65.78224	1009.58179	1522.28809	17.43265	659.99017	1274.78625	-48.33913	466.98792	1311.69983	-142.21332	295.83362	1312.54602	-184.56967	76.02332	1351.84912	-226.22011	50.96751	1401.68799	-31.89678	31.79314	1341.68823	145.9048	666.5014	1656.71558	223.98178	474.26669	1626.43774	252.0526	290.98627	1649.10083	307.64319	101.76059	1629.79578	298.18546	34.51767	1577.72461	467.99652	101.98349	1642.02747	7.91706	1776.15991	1492.10925	NaN	NaN	NaN
131	1.3	134.25317	1734.17139	1407.25989	133.46098	1712.32202	1550.17664	21.89832	1634.25317	1392.62305	9.06473	1608.86426	1533.92554	-15.63714	1503.1886	1456.14661	-75.20989	1231.10376	1457.40637	122.79414	1436.08472	1451.76428	170.82533	1261.32727	1454.81396	-79.55608	1330.81934	1513.26379	73.58031	1486.50049	1281.19885	112.15471	1297.07458	1185.50745	160.4192	1162.31506	1164.45691	254.37291	1066.85229	1177.30701	369.35117	1020.14325	1238.09131	342.57895	985.36603	1202.3999	402.21405	958.00726	1209.51941	53.04654	1463.04004	1646.02185	-2.29416	1278.44653	1723.45581	-3.87069	1131.93555	1743.32361	16.1884	1012.53735	1763.4519	58.34752	883.40997	1744.39844	10.09796	882.53644	1774.78699	43.43505	817.91583	1777.71924	143.12239	965.00751	1310.74194	168.10927	957.90613	1566.38721	-58.21917	1010.53821	1409.67773	-54.5072	1007.82697	1524.37134	24.6434	659.1347	1275.66052	-42.3347	466.5506	1312.39417	-138.62993	296.81921	1313.18115	-183.98734	77.52811	1351.85974	-225.84889	53.01308	1401.74988	-31.82373	31.67867	1341.61353	156.52046	664.60077	1657.77393	233.74957	472.18503	1627.32935	265.13141	289.44092	1649.51782	324.5802	101.52703	1630.58154	316.2601	34.09792	1578.7749	485.16327	103.9708	1641.76611	18.24176	1774.75452	1494.65125	2845.97534	1033.74963	-3356.94067
132	1.31	144.53642	1732.81152	1409.68787	143.69086	1710.74414	1552.62048	32.17471	1632.9491	1394.89478	19.20192	1607.20068	1535.76697	-5.42334	1501.6366	1458.16882	-64.50433	1229.41077	1459.32202	133.12067	1434.60388	1453.61267	181.52473	1259.99292	1456.32214	-68.99463	1328.95166	1514.86145	83.88976	1485.03699	1283.10999	122.15714	1295.37378	1187.60779	170.08997	1160.53821	1166.53748	264.67307	1065.12976	1179.95471	379.64883	1019.40033	1240.44653	353.01321	984.41895	1204.86816	412.81924	957.39264	1211.94922	63.22126	1461.09619	1648.08337	7.30174	1276.58765	1724.9707	5.42664	1130.05591	1744.97192	24.9841	1010.67004	1765.16736	66.6859	881.37811	1746.30994	18.35966	880.72681	1776.53857	51.45004	815.9798	1779.72766	153.30449	963.21954	1311.58752	180.04759	956.59467	1567.00854	-47.22161	1008.82642	1411.88672	-43.11823	1006.23145	1526.6106	32.4243	658.23273	1276.66736	-35.73855	466.22305	1313.07922	-134.63544	297.91025	1313.61633	-183.2439	79.12635	1351.63745	-225.44786	55.44146	1401.50208	-31.74474	31.57017	1341.46802	168.49469	663.53418	1659.86108	243.80424	470.19299	1627.9436	277.06326	287.75998	1649.6261	339.33282	100.7777	1631.02661	331.36301	33.29275	1578.63733	499.97598	104.65593	1642.06665	28.52376	1773.15625	1497.17639	NaN	NaN	NaN
133	1.32	154.84775	1731.58984	1412.2428	153.94942	1709.26184	1555.14185	42.51411	1631.7041	1397.23535	29.61825	1605.81824	1538.36584	4.96189	1500.06665	1460.2384	-53.58603	1227.70459	1461.43518	143.52199	1433.26538	1455.61194	192.28828	1258.75293	1457.85596	-58.20425	1327.03735	1516.69873	94.23682	1483.72583	1285.08606	131.76689	1293.84937	1189.82312	179.67116	1158.83398	1169.13647	274.39401	1063.64221	1182.4668	389.34854	1018.07672	1242.76147	362.58478	982.80383	1207.53369	422.67731	956.18335	1214.27515	73.27432	1459.37842	1650.26038	17.01749	1274.79846	1726.6875	14.69969	1128.13367	1746.396	33.92818	1008.83081	1766.91382	75.35171	879.46173	1748.43774	26.88624	878.97852	1778.35706	59.57458	814.15796	1781.72729	163.45981	961.3595	1312.47522	192.09468	955.39484	1567.76746	-36.13946	1007.14111	1414.36548	-31.65858	1004.76288	1529.18286	40.61333	657.59222	1277.6123	-28.70421	465.92062	1313.53394	-130.10988	299.29437	1313.87976	-182.34715	81.21841	1351.24805	-225.2587	58.5522	1401.25952	-31.65189	31.4752	1341.31799	180.32101	662.13593	1661.48816	254.55234	468.48447	1628.64014	288.14398	286.22342	1650.40173	351.87888	99.61064	1631.31506	344.88037	32.08564	1578.83545	512.56134	104.16434	1642.73499	38.7336	1772.01465	1499.66724	2845.10376	1034.0426	-3360.21777
134	1.33	165.20082	1730.46436	1414.80554	164.25223	1707.86902	1557.68799	52.86703	1630.646	1399.65369	39.76233	1604.4093	1540.35999	15.39533	1498.64258	1462.49756	-42.57323	1226.07043	1463.74597	154.01324	1432.05701	1457.66052	203.22841	1257.73926	1459.4679	-47.54649	1325.27612	1518.69177	104.50908	1482.56165	1287.16516	142.18756	1292.39807	1192.66052	189.41176	1157.50208	1171.57397	283.80664	1062.18066	1184.74524	398.60397	1016.32697	1245.0835	371.83835	981.17419	1209.7616	431.83264	954.57574	1216.54089	83.64098	1457.65039	1652.48047	26.96771	1273.20667	1728.44385	24.54303	1126.62878	1748.35413	43.32313	1007.31158	1768.91553	84.43343	877.71228	1750.46887	35.65243	877.34851	1780.13672	68.33105	812.51514	1783.80188	173.72426	959.55017	1313.49353	204.28525	954.31964	1568.76794	-24.9108	1005.64362	1417.14063	-19.93683	1003.46411	1531.95056	49.49053	656.8067	1278.84619	-21.08613	465.77368	1314.03967	-125.02358	300.6983	1313.91589	-181.33118	83.65577	1350.70349	-224.53223	61.74759	1400.51721	-31.50583	31.40058	1341.13953	192.6709	660.95447	1663.09497	265.6492	466.72653	1629.22009	298.5658	284.29349	1650.52405	362.12656	97.83485	1631.26331	354.93213	30.18821	1578.71545	522.79401	102.12064	1643.7251	49.16133	1770.56128	1502.32178	2845.05103	1033.86023	-3360.302
135	1.34	175.63541	1729.41003	1417.49207	174.66455	1706.5332	1560.30359	63.31914	1629.6958	1402.12354	50.11801	1603.14734	1542.79333	25.70605	1497.2926	1464.81555	-31.48575	1224.53125	1466.2157	164.63292	1430.96826	1459.85437	214.27199	1256.7959	1461.1311	-36.52862	1323.57068	1520.95471	114.73569	1481.51965	1289.32214	151.39799	1291.07898	1195.12622	198.37383	1155.80457	1174.54688	292.35593	1060.22913	1187.22083	407.3494	1014.02753	1247.22607	380.40146	979.00964	1212.04736	440.27368	952.09808	1218.61157	94.15204	1455.92358	1654.50525	37.11586	1271.70093	1730.32507	34.30618	1124.92297	1749.95215	52.78592	1005.76404	1770.7439	93.49831	875.97736	1752.54663	44.72994	875.87256	1781.98438	77.22779	811.01343	1785.89771	184.41251	958.02087	1314.89087	216.62506	953.38971	1570.00977	-13.42752	1004.1347	1420.14099	-7.97633	1002.28949	1534.92029	59.02613	656.31335	1280.0603	-12.82152	465.65842	1314.59033	-119.5326	302.48868	1313.93835	-180.01393	86.33095	1349.98047	-223.84045	65.29434	1399.39575	-31.41009	31.28478	1340.93152	205.62883	660.0448	1664.91223	277.55783	465.74051	1630.37646	309.01648	282.82956	1651.39575	370.01355	95.15557	1630.67041	362.86139	28.52543	1577.84705	530.6441	98.1031	1644.2594	59.5716	1769.51233	1505.07251	2845.08569	1033.90344	-3360.17603
136	1.35	186.26288	1728.62573	1420.42261	185.10591	1705.27771	1563.00903	73.72033	1628.82532	1404.68445	60.49798	1602.00073	1545.26965	36.20963	1496.01758	1467.32153	-20.20992	1222.96436	1468.92493	175.30946	1429.98987	1462.08569	225.54158	1256.02393	1463.00635	-25.60033	1321.97974	1523.33252	124.93945	1480.68079	1291.65515	160.91309	1289.83557	1197.81299	207.19078	1154.41309	1177.33704	300.58121	1058.2666	1190.03137	415.47354	1011.24872	1249.47351	388.16272	976.4035	1214.31348	447.81586	949.16992	1220.63	104.57293	1454.5592	1656.73438	47.61185	1270.45691	1732.48547	44.64952	1123.61658	1752.09253	62.57508	1004.3891	1772.59412	102.9939	874.45483	1754.58789	54.05811	874.54828	1783.86255	86.44167	809.65576	1788.03296	195.43428	956.76654	1316.46643	229.20836	952.59045	1571.52466	-1.82291	1002.77814	1423.41919	4.25885	1001.22302	1538.12622	68.80739	655.90778	1281.14551	-4.00215	465.65814	1315.21936	-113.61228	304.44702	1313.99011	-178.51762	89.46732	1349.21716	-222.68092	69.56946	1398.75793	-31.29025	31.22602	1340.69482	218.99146	659.44812	1666.82031	289.70926	464.83429	1632.03113	318.14893	280.35825	1651.63342	376.29373	92.45966	1630.26624	366.81216	27.78828	1577.65845	536.86023	93.04198	1644.44397	69.9733	1768.13062	1507.6178	2845.19971	1033.89429	-3360.38599
137	1.36	196.60994	1727.55725	1422.97498	195.64172	1704.0719	1565.73608	84.16572	1627.97485	1407.28174	70.94678	1600.89392	1547.7854	46.64458	1494.43079	1469.70813	-8.23935	1221.28308	1472.05859	186.10904	1429.0946	1464.37622	236.82841	1255.31616	1464.96521	-14.36396	1320.38318	1525.87695	135.12889	1479.73486	1294.02185	170.98172	1288.85486	1201.03162	215.79941	1153.05859	1180.22974	308.49014	1056.51685	1192.24121	423.1257	1008.12262	1251.69836	395.41803	973.60327	1216.50256	454.91162	945.82776	1222.52966	115.72382	1453.47974	1659.49146	58.18967	1269.19971	1734.49524	54.83047	1122.32874	1753.68982	72.53748	1003.12347	1774.50574	112.7011	873.0899	1756.72498	63.66697	873.36481	1785.81165	95.86032	808.36334	1790.14319	206.83768	955.84888	1318.2804	241.94196	951.92572	1573.33289	10.01803	1001.45966	1426.94141	15.82912	1000.4964	1541.64624	79.61224	655.18555	1282.49829	5.31568	465.78806	1315.87024	-107.48887	307.04974	1314.28564	-176.87067	93.09164	1348.53027	-221.30931	74.16986	1397.91785	-31.14965	31.18547	1340.43518	232.84685	659.14783	1668.7915	301.46036	463.53043	1633.51709	326.98074	278.36435	1652.17285	381.58466	90.03656	1630.32788	369.75137	27.25693	1577.604	542.10449	85.64999	1643.89111	80.42622	1767.2666	1510.51709	2845.70557	1034.04956	-3356.98096
